<?xml version="1.0" encoding="utf-8"?>
<!-- Generator: Adobe Illustrator 16.0.0, SVG Export Plug-In . SVG Version: 6.00 Build 0)  -->
<!DOCTYPE svg PUBLIC "-//W3C//DTD SVG 1.1//EN" "http://www.w3.org/Graphics/SVG/1.1/DTD/svg11.dtd">
<svg version="1.1" id="Layer_1" xmlns="http://www.w3.org/2000/svg" xmlns:xlink="http://www.w3.org/1999/xlink" x="0px" y="0px"
	 width="512px" height="512px" viewBox="0 0 512 512" enable-background="new 0 0 512 512" xml:space="preserve">
<g>
	<g>
		<g id="Icon_11_">
			<g>
				<g>
					<path d="M364.172,293.613c11.988-34.529,6.316-70.638-11.91-98.966l14.166-82.325L258.106,74.71l-39.9,73.389
						c-31.861,10.937-58.691,35.76-70.68,70.289c-11.988,34.525-6.315,70.633,11.911,98.965l-14.167,82.324l108.322,37.613
						l39.9-73.391C325.354,352.961,352.184,328.139,364.172,293.613z M174.607,227.792c15.515-44.685,64.771-68.547,109.452-53.034
						c44.68,15.515,68.548,64.768,53.031,109.453c-15.514,44.68-64.77,68.547-109.45,53.031
						C182.96,321.729,159.093,272.471,174.607,227.792z"/>
				</g>
			</g>
		</g>
	</g>
	<path d="M393.82,232.059c-3.513,1.575-4.93,5.655-3.148,9.068l14.732,28.222c1.781,3.412,0.364,7.494-3.148,9.066l-29.052,13.02
		c-3.514,1.574-4.931,5.656-3.149,9.07l14.893,28.531c1.782,3.412,0.365,7.492-3.148,9.066l-29.369,13.162
		c-3.514,1.574-4.93,5.654-3.149,9.068l22.745,43.574c1.781,3.412,6.096,4.875,9.584,3.25l2.361-1.1
		c3.49-1.625,4.919-5.766,3.175-9.197l-14.386-28.316c-1.744-3.434-0.311-7.561,3.186-9.174l28.989-13.379
		c3.495-1.613,4.912-5.734,3.147-9.154l-14.512-28.141c-1.764-3.42-0.342-7.529,3.16-9.129l28.658-13.072
		c3.502-1.598,4.93-5.709,3.173-9.133l-14.386-28.038c-1.758-3.425-0.336-7.548,3.16-9.162l29.249-13.502
		c3.495-1.614,4.862-5.708,3.038-9.098l-1.242-2.305c-1.824-3.391-6.191-4.876-9.705-3.302L393.82,232.059z"/>
	<path d="M162.403,151.705c1.782,3.414,0.365,7.494-3.148,9.069l-29.052,13.019c-3.514,1.574-4.93,5.655-3.148,9.068l14.731,28.221
		c1.782,3.414,0.365,7.494-3.148,9.069l-29.37,13.162c-3.514,1.574-4.93,5.654-3.148,9.067l14.893,28.532
		c1.782,3.412,0.365,7.492-3.149,9.068l-44.854,20.102c-3.514,1.574-7.805,0.049-9.536-3.389l-1.171-2.326
		c-1.732-3.439-0.288-7.572,3.208-9.186l28.84-13.309c3.496-1.611,4.93-5.74,3.186-9.174l-14.46-28.465
		c-1.743-3.433-0.302-7.544,3.203-9.136l28.828-13.092c3.506-1.592,4.935-5.697,3.177-9.122l-14.388-28.021
		c-1.759-3.425-0.332-7.535,3.17-9.134l28.665-13.088c3.502-1.599,4.941-5.715,3.198-9.148l-14.587-28.724
		c-1.743-3.433-0.279-7.493,3.253-9.023l2.403-1.04c3.533-1.53,7.881,0.011,9.664,3.424L162.403,151.705z"/>
</g>
</svg>
