<?xml version="1.0" encoding="utf-8"?>
<!-- Generator: Adobe Illustrator 16.0.0, SVG Export Plug-In . SVG Version: 6.00 Build 0)  -->
<!DOCTYPE svg PUBLIC "-//W3C//DTD SVG 1.1//EN" "http://www.w3.org/Graphics/SVG/1.1/DTD/svg11.dtd">
<svg version="1.1" id="Layer_1" xmlns="http://www.w3.org/2000/svg" xmlns:xlink="http://www.w3.org/1999/xlink" x="0px" y="0px"
	 width="512px" height="512px" viewBox="0 0 512 512" enable-background="new 0 0 512 512" xml:space="preserve">
<g>
	<g>
		<g>
			<g>
				<g>
					<path d="M256,49.375c-114.9,0-208,93.101-208,208c0,114.9,93.1,208,208,208c114.9,0,208-93.1,208-208
						C464,142.476,370.9,49.375,256,49.375z M256,448.075c-105.1,0-190.7-85.5-190.7-190.7c0-105.199,85.6-190.699,190.7-190.699
						c105.1,0,190.699,85.6,190.699,190.699C446.699,362.476,361.1,448.075,256,448.075z"/>
				</g>
			</g>
		</g>
	</g>
	<g>
		<g>
			<path d="M352,162h-53v-13.383c0-10.846-8.922-19.617-19.768-19.617h-46.532c-10.78,0-19.701,8.771-19.701,19.617V162h-53v10
				h13.716l15.801,194.505c0,10.847,8.771,19.495,19.617,19.495h94.402c10.847,0,19.617-8.648,19.617-19.495L338.751,172H352V162z
				 M223,148.617c0-5.423,4.345-9.617,9.701-9.617h46.532c5.423,0,9.768,4.194,9.768,9.617V162h-66V148.617L223,148.617z
				 M313,365.941v0.268v0.268c0,5.424-4.109,9.523-9.465,9.523h-94.402c-5.423,0-10.133-4.1-10.133-9.523v-0.268v-0.268L183.491,172
				h145.418L313,365.941z"/>
			<g>
				<rect x="251" y="193" width="10" height="162"/>
				<polygon points="298.849,193 289.074,193 281.91,355 291.686,355 				"/>
				<polygon points="222.858,193 213.15,193 220.314,355 230.089,355 				"/>
			</g>
		</g>
	</g>
</g>
</svg>
